<svg xmlns="http://www.w3.org/2000/svg" width="512" height="512" viewBox="0 0 512 512">
  <rect width="512" height="512" fill="#000"/>
  <g transform="translate(85, 85) scale(14.25)">
    <path d="m12 3-1.912 5.813a2 2 0 0 1-1.275 1.275L3 12l5.813 1.912a2 2 0 0 1 1.275 1.275L12 21l1.912-5.813a2 2 0 0 1 1.275-1.275L21 12l-5.813-1.912a2 2 0 0 1-1.275-1.275L12 3Z" fill="#dfff00"/>
    <path d="M5 3v4" stroke="#dfff00" stroke-width="2" stroke-linecap="round" fill="none"/>
    <path d="M19 17v4" stroke="#dfff00" stroke-width="2" stroke-linecap="round" fill="none"/>
    <path d="M3 5h4" stroke="#dfff00" stroke-width="2" stroke-linecap="round" fill="none"/>
    <path d="M17 19h4" stroke="#dfff00" stroke-width="2" stroke-linecap="round" fill="none"/>
  </g>
</svg>